HIERARCHY
ROOT Hips
{
	OFFSET 0.000000 97.167313 0.000000
	CHANNELS 6 Xposition Yposition Zposition Xrotation Yrotation Zrotation
	JOINT Spine
	{
		OFFSET 0.000000 13.784798 0.064400
		CHANNELS 3 Xrotation Yrotation Zrotation
		JOINT Spine1
		{
			OFFSET 0.000000 12.037903 0.404700
			CHANNELS 3 Xrotation Yrotation Zrotation
			JOINT Spine2
			{
				OFFSET 0.000000 17.795601 0.420200
				CHANNELS 3 Xrotation Yrotation Zrotation
				JOINT Neck
				{
					OFFSET 0.000000 39.131302 11.954600
					CHANNELS 3 Xrotation Yrotation Zrotation
					JOINT Head
					{
						OFFSET 0.000000 14.456192 15.627699
						CHANNELS 3 Xrotation Yrotation Zrotation
						JOINT HeadTop_End
						{
							OFFSET 0.000000 15.703506 7.603401
							CHANNELS 3 Xrotation Yrotation Zrotation
							End Site
							{
								OFFSET 0.000000 17.447403 0.000000
							}
						}
					}
				}
				JOINT LeftShoulder
				{
					OFFSET 17.399500 24.608795 1.168800
					CHANNELS 3 Xrotation Yrotation Zrotation
					JOINT LeftArm
					{
						OFFSET 18.980635 5.765305 1.818600
						CHANNELS 3 Xrotation Yrotation Zrotation
						JOINT LeftForeArm
						{
							OFFSET 49.290169 0.000000 0.000000
							CHANNELS 3 Xrotation Yrotation Zrotation
							JOINT LeftHand
							{
								OFFSET 31.562012 0.000000 0.000000
								CHANNELS 3 Xrotation Yrotation Zrotation
								JOINT LeftHandThumb1
								{
									OFFSET 6.133995 -4.388519 7.076070
									CHANNELS 3 Xrotation Yrotation Zrotation
									JOINT LeftHandThumb2
									{
										OFFSET 6.037666 -3.485840 3.485847
										CHANNELS 3 Xrotation Yrotation Zrotation
										JOINT LeftHandThumb3
										{
											OFFSET 6.496506 -3.750763 3.750761
											CHANNELS 3 Xrotation Yrotation Zrotation
											JOINT LeftHandThumb4
											{
												OFFSET 5.616882 -3.242905 3.242910
												CHANNELS 3 Xrotation Yrotation Zrotation
												End Site
												{
													OFFSET -1.254608 7.132141 0.375429
												}
											}
										}
									}
								}
								JOINT LeftHandPinky1
								{
									OFFSET 18.920792 -0.453171 -11.426712
									CHANNELS 3 Xrotation Yrotation Zrotation
									JOINT LeftHandPinky2
									{
										OFFSET 4.919586 0.000000 0.000000
										CHANNELS 3 Xrotation Yrotation Zrotation
										JOINT LeftHandPinky3
										{
											OFFSET 5.233047 0.000000 0.000000
											CHANNELS 3 Xrotation Yrotation Zrotation
											JOINT LeftHandPinky4
											{
												OFFSET 5.571716 0.000000 0.000000
												CHANNELS 3 Xrotation Yrotation Zrotation
												End Site
												{
													OFFSET -3.459808 4.342407 -0.466164
												}
											}
										}
									}
								}
								JOINT LeftHandRing1
								{
									OFFSET 22.726120 -0.094986 -6.500475
									CHANNELS 3 Xrotation Yrotation Zrotation
									JOINT LeftHandRing2
									{
										OFFSET 6.408615 0.000000 0.000000
										CHANNELS 3 Xrotation Yrotation Zrotation
										JOINT LeftHandRing3
										{
											OFFSET 6.150223 0.000000 0.000000
											CHANNELS 3 Xrotation Yrotation Zrotation
											JOINT LeftHandRing4
											{
												OFFSET 6.145386 0.000000 0.000000
												CHANNELS 3 Xrotation Yrotation Zrotation
												End Site
												{
													OFFSET -3.671402 4.923981 -0.202372
												}
											}
										}
									}
								}
								JOINT LeftHandMiddle1
								{
									OFFSET 23.373947 0.000000 0.000001
									CHANNELS 3 Xrotation Yrotation Zrotation
									JOINT LeftHandMiddle2
									{
										OFFSET 6.996567 0.000000 0.000000
										CHANNELS 3 Xrotation Yrotation Zrotation
										JOINT LeftHandMiddle3
										{
											OFFSET 7.015945 0.000000 0.000000
											CHANNELS 3 Xrotation Yrotation Zrotation
											JOINT LeftHandMiddle4
											{
												OFFSET 7.721573 0.000000 0.000000
												CHANNELS 3 Xrotation Yrotation Zrotation
												End Site
												{
													OFFSET -4.651108 6.158463 0.251582
												}
											}
										}
									}
								}
								JOINT LeftHandIndex1
								{
									OFFSET 21.310577 -0.490082 6.209344
									CHANNELS 3 Xrotation Yrotation Zrotation
									JOINT LeftHandIndex2
									{
										OFFSET 7.536453 0.000000 0.000000
										CHANNELS 3 Xrotation Yrotation Zrotation
										JOINT LeftHandIndex3
										{
											OFFSET 7.512344 0.000000 0.000000
											CHANNELS 3 Xrotation Yrotation Zrotation
											JOINT LeftHandIndex4
											{
												OFFSET 10.212402 0.000000 0.000001
												CHANNELS 3 Xrotation Yrotation Zrotation
												End Site
												{
													OFFSET -5.180801 8.690506 1.388433
												}
											}
										}
									}
								}
							}
						}
					}
				}
				JOINT RightShoulder
				{
					OFFSET -17.399500 24.608795 1.168800
					CHANNELS 3 Xrotation Yrotation Zrotation
					JOINT RightArm
					{
						OFFSET -18.980635 5.765305 1.818600
						CHANNELS 3 Xrotation Yrotation Zrotation
						JOINT RightForeArm
						{
							OFFSET -49.290169 0.000000 0.000000
							CHANNELS 3 Xrotation Yrotation Zrotation
							JOINT RightHand
							{
								OFFSET -31.562012 0.000000 0.000000
								CHANNELS 3 Xrotation Yrotation Zrotation
								JOINT RightHandThumb1
								{
									OFFSET -6.133995 -4.388519 7.076070
									CHANNELS 3 Xrotation Yrotation Zrotation
									JOINT RightHandThumb2
									{
										OFFSET -6.037666 -3.485840 3.485847
										CHANNELS 3 Xrotation Yrotation Zrotation
										JOINT RightHandThumb3
										{
											OFFSET -6.496506 -3.750763 3.750761
											CHANNELS 3 Xrotation Yrotation Zrotation
											JOINT RightHandThumb4
											{
												OFFSET -5.616882 -3.242905 3.242910
												CHANNELS 3 Xrotation Yrotation Zrotation
												End Site
												{
													OFFSET 1.254608 7.132141 0.375429
												}
											}
										}
									}
								}
								JOINT RightHandIndex1
								{
									OFFSET -21.310577 -0.490082 6.209344
									CHANNELS 3 Xrotation Yrotation Zrotation
									JOINT RightHandIndex2
									{
										OFFSET -7.536453 0.000000 0.000000
										CHANNELS 3 Xrotation Yrotation Zrotation
										JOINT RightHandIndex3
										{
											OFFSET -7.512344 0.000000 0.000000
											CHANNELS 3 Xrotation Yrotation Zrotation
											JOINT RightHandIndex4
											{
												OFFSET -10.212402 0.000000 0.000001
												CHANNELS 3 Xrotation Yrotation Zrotation
												End Site
												{
													OFFSET 5.180801 8.690506 1.388433
												}
											}
										}
									}
								}
								JOINT RightHandMiddle1
								{
									OFFSET -23.373947 0.000000 0.000001
									CHANNELS 3 Xrotation Yrotation Zrotation
									JOINT RightHandMiddle2
									{
										OFFSET -6.996567 0.000000 0.000000
										CHANNELS 3 Xrotation Yrotation Zrotation
										JOINT RightHandMiddle3
										{
											OFFSET -7.015945 0.000000 0.000000
											CHANNELS 3 Xrotation Yrotation Zrotation
											JOINT RightHandMiddle4
											{
												OFFSET -7.721573 0.000000 0.000000
												CHANNELS 3 Xrotation Yrotation Zrotation
												End Site
												{
													OFFSET 4.651108 6.158463 0.251582
												}
											}
										}
									}
								}
								JOINT RightHandRing1
								{
									OFFSET -22.726120 -0.094986 -6.500475
									CHANNELS 3 Xrotation Yrotation Zrotation
									JOINT RightHandRing2
									{
										OFFSET -6.408615 0.000000 0.000000
										CHANNELS 3 Xrotation Yrotation Zrotation
										JOINT RightHandRing3
										{
											OFFSET -6.150223 0.000000 0.000000
											CHANNELS 3 Xrotation Yrotation Zrotation
											JOINT RightHandRing4
											{
												OFFSET -6.145386 0.000000 0.000000
												CHANNELS 3 Xrotation Yrotation Zrotation
												End Site
												{
													OFFSET 3.671402 4.923981 -0.202372
												}
											}
										}
									}
								}
								JOINT RightHandPinky1
								{
									OFFSET -18.920792 -0.453171 -11.426712
									CHANNELS 3 Xrotation Yrotation Zrotation
									JOINT RightHandPinky2
									{
										OFFSET -4.919586 0.000000 0.000000
										CHANNELS 3 Xrotation Yrotation Zrotation
										JOINT RightHandPinky3
										{
											OFFSET -5.233047 0.000000 0.000000
											CHANNELS 3 Xrotation Yrotation Zrotation
											JOINT RightHandPinky4
											{
												OFFSET -5.571716 0.000000 0.000000
												CHANNELS 3 Xrotation Yrotation Zrotation
												End Site
												{
													OFFSET 3.459808 4.342407 -0.466164
												}
											}
										}
									}
								}
							}
						}
					}
				}
			}
		}
	}
	JOINT LeftUpLeg
	{
		OFFSET 19.899099 -7.885101 -3.429500
		CHANNELS 3 Xrotation Yrotation Zrotation
		JOINT LeftLeg
		{
			OFFSET 1.745560 -36.997807 10.304700
			CHANNELS 3 Xrotation Yrotation Zrotation
			JOINT LeftFoot
			{
				OFFSET -1.745558 -29.803308 -13.615400
				CHANNELS 3 Xrotation Yrotation Zrotation
				JOINT LeftToeBase
				{
					OFFSET 1.181900 -18.539904 15.226099
					CHANNELS 3 Xrotation Yrotation Zrotation
					JOINT LeftToe_End
					{
						OFFSET -0.863701 1.402801 16.534700
						CHANNELS 3 Xrotation Yrotation Zrotation
						End Site
						{
							OFFSET 0.000000 16.616566 0.000000
						}
					}
				}
			}
		}
	}
	JOINT RightUpLeg
	{
		OFFSET -19.899099 -7.885101 -3.429500
		CHANNELS 3 Xrotation Yrotation Zrotation
		JOINT RightLeg
		{
			OFFSET -1.745560 -36.997807 10.304700
			CHANNELS 3 Xrotation Yrotation Zrotation
			JOINT RightFoot
			{
				OFFSET 1.745558 -29.803308 -13.615400
				CHANNELS 3 Xrotation Yrotation Zrotation
				JOINT RightToeBase
				{
					OFFSET -1.181900 -18.539904 15.226099
					CHANNELS 3 Xrotation Yrotation Zrotation
					JOINT RightToe_End
					{
						OFFSET 0.863701 1.402801 16.534700
						CHANNELS 3 Xrotation Yrotation Zrotation
						End Site
						{
							OFFSET 0.000000 16.616566 0.000000
						}
					}
				}
			}
		}
	}
}
MOTION
Frames: 4
Frame Time: 0.033333
-0.274070 89.842842 3.172824 2.379651 -11.977654 -0.418081 11.105826 0.532049 0.146378 2.062462 3.956093 1.043708 -9.856435 5.298389 1.890113 -3.883481 2.069970 -6.983051 5.911807 -0.105709 7.514292 -0.000001 0.000000 -0.000000 -1.295914 0.077863 -4.827735 -3.652877 -0.069562 -73.006908 -0.000008 -15.717635 -0.000051 2.306634 0.165003 -5.013161 8.265312 -7.734426 18.880858 5.411319 20.570016 -9.842166 1.743070 3.611355 -0.680002 0.000000 -0.000000 -0.000002 0.622151 -0.700676 -24.132839 -0.025207 -0.947008 -17.465265 -0.472335 -0.846597 -16.565895 0.000003 -0.000000 0.000003 0.313052 -1.761381 -17.977538 -0.200762 -1.101933 -20.982710 -0.037898 -0.985917 -17.928096 0.000001 0.000000 0.000003 0.248950 -1.909201 -12.464965 -0.122862 -0.871855 -17.469471 -0.118431 -0.929608 -18.480342 0.000000 -0.000002 0.000001 0.273663 -4.246511 -3.910723 0.092069 -0.802008 -17.447312 -0.011358 -0.377035 -8.071557 0.000001 0.000001 0.000001 -1.295921 -0.077882 4.827724 3.909194 3.069872 67.997682 0.000004 18.089249 -0.000008 2.313897 -1.592951 -2.170173 8.265302 7.734421 -18.880847 5.410989 -20.570126 9.839695 1.743336 -3.611225 0.680686 0.000001 -0.000001 -0.000004 0.272387 4.252677 3.917188 0.085954 0.799292 17.452610 -0.018753 0.375889 8.076771 -0.000000 0.000000 -0.000001 0.250201 1.903637 12.463711 -0.124719 0.871745 17.470437 -0.117778 0.927662 18.481513 0.000001 0.000000 -0.000008 0.310452 1.762617 17.988994 -0.197106 1.097540 20.984365 -0.034157 0.981276 17.925753 -0.000001 -0.000001 -0.000007 0.626362 0.701967 24.132100 -0.026340 0.950622 17.463873 -0.471738 0.844617 16.562773 0.000001 -0.000001 0.000004 -17.282172 11.644104 17.123836 22.969552 2.575443 0.716339 -5.778012 7.549223 -13.874767 -3.075507 -2.345048 -2.459408 0.000000 0.000000 -0.000000 -9.224609 -8.034871 -10.233363 21.866494 -3.065985 -0.842299 -13.736919 -2.747348 11.696700 -5.415917 2.348510 2.459436 -0.000000 -0.000001 0.000000 
-0.364221 89.729935 3.175266 2.552359 -12.091815 -0.045284 11.140568 0.541805 0.167329 2.129950 3.988967 1.082842 -9.790454 5.324080 1.935359 -3.650645 4.787642 -6.214335 5.616733 2.841512 5.761099 0.000000 -0.000000 -0.000000 -1.297292 0.539848 -4.700272 -3.351265 0.176444 -72.321922 0.869357 -15.968248 0.081934 2.292293 0.171196 -5.233872 8.364957 -7.622325 18.857275 5.334460 20.471682 -9.817746 1.785332 3.664461 -0.677966 -0.000002 0.000001 0.000000 0.612846 -0.662368 -24.109528 -0.041927 -0.961985 -17.819373 -0.503062 -0.871139 -17.123865 0.000001 -0.000002 -0.000002 0.322888 -1.744675 -18.056155 -0.213154 -1.119206 -21.369777 -0.050580 -1.004956 -18.327971 0.000001 -0.000001 0.000002 0.265371 -1.876400 -12.580949 -0.122562 -0.887822 -17.765394 -0.114973 -0.948405 -18.804062 -0.000000 -0.000000 0.000004 0.406377 -4.225664 -3.917548 0.090855 -0.805894 -17.534880 -0.012855 -0.387281 -8.292998 -0.000001 0.000003 0.000001 -1.290902 0.112179 4.930153 3.645942 3.215050 67.675092 -0.267901 17.840031 -0.082921 2.296209 -1.540780 -2.294461 8.411475 7.569995 -18.846116 5.298284 -20.425855 9.803995 1.805320 -3.689140 0.677524 0.000000 -0.000001 -0.000004 0.467224 4.221611 3.926621 0.084162 0.804929 17.580612 -0.020904 0.390850 8.401164 -0.000001 0.000000 0.000001 0.274258 1.856035 12.633932 -0.121805 0.895963 17.904521 -0.112702 0.955271 18.956280 0.000002 -0.000001 -0.000007 0.327624 1.738807 18.103259 -0.217747 1.121853 21.552061 -0.055664 1.008228 18.512671 -0.000001 -0.000002 -0.000003 0.612367 0.645655 24.097944 -0.050901 0.972546 17.983470 -0.517726 0.883136 17.381489 0.000001 -0.000002 0.000005 -17.281586 11.706082 16.824221 22.906347 2.655305 0.715718 -5.760914 7.628622 -13.949271 -3.075522 -2.345056 -2.459412 0.000000 0.000001 -0.000000 -9.827500 -8.100364 -10.618978 22.567076 -2.872725 -0.854201 -14.104530 -2.648752 11.650259 -5.415932 2.348511 2.459453 -0.000000 0.000003 0.000000 
-0.532441 89.532402 3.148562 2.743128 -12.349090 0.418626 11.173205 0.559993 0.176626 2.194086 4.023207 1.100952 -9.727285 5.350857 1.960125 -3.293792 7.980406 -5.292823 5.474109 5.866259 3.782061 -0.000000 0.000000 -0.000000 -1.294452 1.025606 -4.612762 -3.159954 0.395686 -71.387771 1.407953 -16.000714 0.102298 2.283787 0.184718 -5.625573 8.624366 -7.330594 18.794060 5.139651 20.211676 -9.759118 1.896842 3.802239 -0.675905 -0.000001 0.000001 0.000000 0.588547 -0.562553 -24.048678 -0.087428 -1.005081 -18.741914 -0.585781 -0.937358 -18.577694 0.000002 0.000001 -0.000000 0.353517 -1.702805 -18.260939 -0.250412 -1.161758 -22.378411 -0.089250 -1.052101 -19.369969 0.000001 0.000000 0.000005 0.308918 -1.791229 -12.883116 -0.117789 -0.931032 -18.536536 -0.105384 -0.994651 -19.647683 0.000002 -0.000001 0.000004 0.752302 -4.171613 -3.935869 0.087575 -0.815990 -17.763001 -0.016984 -0.414716 -8.869993 0.000000 0.000001 0.000001 -1.291382 0.421449 5.056971 3.326943 3.397855 67.272657 -0.324563 17.657262 -0.121396 2.307046 -1.600485 -2.208560 8.768828 7.168196 -18.757696 5.032098 -20.066114 9.728920 1.959027 -3.879060 0.674891 0.000001 -0.000001 -0.000001 0.944313 4.145980 3.950899 0.079694 0.818782 17.893943 -0.024496 0.429445 9.195365 -0.000000 -0.000002 0.000003 0.334528 1.740059 13.050753 -0.115562 0.955682 18.967167 -0.099885 1.019342 20.118916 0.000001 0.000000 -0.000001 0.370176 1.680853 18.383149 -0.271181 1.184511 22.941907 -0.110899 1.077221 19.949273 0.000001 0.000000 -0.000008 0.577887 0.507806 24.014119 -0.112951 1.028141 19.255471 -0.632529 0.972585 19.386235 0.000001 -0.000000 0.000002 -17.276260 11.760840 16.535509 22.966482 2.791838 0.711570 -5.809065 7.796033 -14.131991 -3.075506 -2.345038 -2.459413 -0.000000 -0.000000 -0.000000 -10.777654 -8.494942 -11.121000 23.643069 -2.371193 -0.864557 -14.646313 -2.311997 11.453907 -5.415934 2.348506 2.459446 0.000000 -0.000000 -0.000000 
-0.816302 89.269592 3.092288 2.929855 -12.450935 0.898874 11.205348 0.563198 0.176146 2.258352 4.022547 1.106831 -9.663009 5.344663 1.965607 -2.927786 11.503008 -4.341690 5.596184 8.855558 1.762090 -0.000001 -0.000001 0.000000 -1.286520 1.508916 -4.568692 -3.032407 0.621094 -70.370817 1.634421 -15.996600 0.071681 2.277987 0.191277 -6.067707 8.984081 -6.926290 18.702096 4.872027 19.848871 -9.684484 2.051782 3.993659 -0.673615 -0.000000 -0.000002 -0.000003 0.554466 -0.423964 -23.963859 -0.151484 -1.062309 -20.023664 -0.703302 -1.023260 -20.597848 -0.000000 -0.000001 -0.000006 0.396624 -1.645047 -18.545490 -0.305040 -1.223531 -23.779596 -0.145875 -1.120063 -20.817594 -0.000000 0.000000 0.000002 0.371002 -1.673695 -13.303050 -0.111312 -0.988889 -19.607945 -0.092058 -1.056399 -20.819895 -0.000000 -0.000001 0.000006 1.232897 -4.097117 -3.962615 0.080185 -0.829060 -18.079992 -0.023440 -0.453850 -9.671548 0.000000 -0.000000 -0.000001 -1.295695 0.774882 5.186771 2.957982 3.662653 66.857375 -0.069658 17.674409 -0.085163 2.331916 -1.633609 -2.047964 9.215682 6.666152 -18.640220 4.699972 -19.614691 9.637260 2.151748 -4.117154 0.672490 0.000001 0.000001 0.000002 1.542408 4.052191 3.983432 0.073970 0.836080 18.286752 -0.027102 0.477762 10.190902 -0.000000 0.000001 -0.000001 0.412607 1.595996 13.573472 -0.107222 1.025007 20.299573 -0.084224 1.096768 21.576498 0.000001 0.000001 -0.000004 0.424376 1.608827 18.734022 -0.342086 1.264783 24.683984 -0.184206 1.165192 21.750201 -0.000001 0.000001 -0.000001 0.534050 0.335178 23.908766 -0.193365 1.098138 20.850001 -0.780614 1.074816 21.899731 0.000002 0.000000 0.000000 -17.415463 11.764325 16.342682 23.113304 2.831542 0.702211 -5.805730 7.895084 -14.380291 -3.075501 -2.345061 -2.459410 0.000000 -0.000001 -0.000000 -11.816979 -9.233111 -11.617675 24.958170 -1.751406 -0.876211 -15.407529 -1.889022 11.114331 -5.415941 2.348490 2.459442 -0.000001 -0.000000 0.000000 
